M48
;Layer_Color=9474304
;FILE_FORMAT=4:2
METRIC,LZ
;TYPE=PLATED
T1F00S00C0.30
T2F00S00C1.06
T3F00S00C1.14
T4F00S00C3.20
;TYPE=NON_PLATED
T5F00S00C0.75
%
T01
X0046Y0002
X004488Y000919
X0046Y0012
X004725Y00145
X0046Y0017
X004725Y00195
X0046Y0022
X004725Y00245
X0046Y0027
X004725Y00295
X0046Y0032
X00435
X004475Y00295
X00425Y002725
X004164Y0028
X004083Y002805
X004001Y0028
X003975Y00295
X0036Y0027
X003618Y002257
X003568Y002132
X00355Y001975
X003612Y00185
X0037Y001625
X003725Y00145
X003962Y001462
X00405Y00155
X004138Y001462
Y001638
X004108Y001867
X004029Y001854
X004195Y001925
X004275
X004125Y0023
X00405Y002375
X004125Y00245
X003975Y0023
X004475Y00245
Y00145
X004348Y001043
X004293Y000932
X004403
X004183
X004095Y000668
X004024Y000584
X004019Y000501
X004105Y000519
X004231Y000557
X004225Y00045
X004402Y000567
X004425Y000668
X004315
X00435Y0002
X0041
X00385
X0036
X00335
X0031
X00285
X0026
X00235
X0021
X00185
X0016
X00135
X0011
X00085
X0006
X000725Y00045
X000975
X001225
X001475
X001725
X001975
X002225
X002475
X002725
X002975
X003225
X003475
X003758Y00052
X003812Y000599
X003793Y000708
X003703Y000741
X0036Y0007
X00335
X0031
X00285
X0026
X00235
X0021
X00185
X0016
X00135
X0011
X00085
X0006
X000725Y00095
X00085Y0012
X0006
X000725Y00145
X00075Y001759
X00085Y001759
X001Y001775
X001143Y002025
X00125
Y00192
X001357Y002025
X00125Y002133
X00085Y0022
X00075Y002209
X000775Y0025
X000975
X0011Y0027
Y0032
X00085
X001375Y003134
X001425Y002525
X001525
X002225Y00245
X00235Y0022
X0026
X002775Y002225
X002725Y00195
X002475
X002225
X00235Y0017
X0026
X00285
X003025Y001775
Y001875
X003225Y0021
Y00245
X0031Y0027
X003225Y00145
X00335Y0012
X0036
X003725Y00095
X003475
X003225
X002975
X002725
X00255Y000975
X0026Y0012
X002725Y00145
X002225
X001975
X001897Y001597
X00196Y001721
X0021Y0022
Y0012
X00185
X00165Y001234
X001475Y00095
X0014Y001625
X0011Y00135
X0006Y0027
X0031Y0012
X00035
X0001
X000225Y00095
X000475
X00035Y0007
X0001
Y0002
Y0017
X00035
X00045Y001884
X00045Y002025
X00035Y0022
X0001
X000225Y00195
X00035Y0027
X0001
Y0032
T02
X001925Y001025
X002179
T03
X001567Y00295
X001821
X002075
X002329
X002583
X002837
X003091
T04
X0004Y0004
Y0031
T05
X000475Y0017
Y002277
M30
