G04*
G04 #@! TF.GenerationSoftware,Altium Limited,Altium Designer,23.0.1 (38)*
G04*
G04 Layer_Physical_Order=2*
G04 Layer_Color=16711680*
%FSLAX42Y42*%
%MOMM*%
G71*
G04*
G04 #@! TF.SameCoordinates,C436630F-131B-4BCA-922F-36B4D9C4E9B2*
G04*
G04*
G04 #@! TF.FilePolarity,Positive*
G04*
G01*
G75*
%ADD10C,0.20*%
%ADD13C,0.50*%
%ADD19R,4.90X1.60*%
%ADD67C,0.25*%
%ADD70C,3.50*%
%ADD71R,1.71X1.71*%
%ADD72C,1.71*%
%ADD73C,1.59*%
%ADD74R,1.59X1.59*%
%ADD75C,0.75*%
%ADD76C,0.60*%
G36*
X4967Y33D02*
X33D01*
X33Y3467D01*
X4967D01*
X4967Y33D01*
D02*
G37*
%LPC*%
G36*
X420Y3300D02*
X413D01*
Y3113D01*
X600D01*
Y3120D01*
X593Y3158D01*
X578Y3195D01*
X556Y3228D01*
X528Y3256D01*
X495Y3278D01*
X458Y3293D01*
X420Y3300D01*
D02*
G37*
G36*
X387D02*
X380D01*
X342Y3293D01*
X305Y3278D01*
X272Y3256D01*
X244Y3228D01*
X222Y3195D01*
X207Y3158D01*
X200Y3120D01*
Y3113D01*
X387D01*
Y3300D01*
D02*
G37*
G36*
X2344Y3061D02*
X2342D01*
Y2963D01*
X2440D01*
Y2965D01*
X2432Y2993D01*
X2418Y3018D01*
X2397Y3039D01*
X2372Y3053D01*
X2344Y3061D01*
D02*
G37*
G36*
X600Y3087D02*
X413D01*
Y2900D01*
X420D01*
X458Y2907D01*
X495Y2922D01*
X528Y2944D01*
X556Y2972D01*
X578Y3005D01*
X593Y3042D01*
X600Y3080D01*
Y3087D01*
D02*
G37*
G36*
X387D02*
X200D01*
Y3080D01*
X207Y3042D01*
X222Y3005D01*
X244Y2972D01*
X272Y2944D01*
X305Y2922D01*
X342Y2907D01*
X380Y2900D01*
X387D01*
Y3087D01*
D02*
G37*
G36*
X4050Y3221D02*
X1415D01*
X1398Y3217D01*
X1383Y3207D01*
X1355Y3179D01*
X1347Y3176D01*
X1333Y3162D01*
X1325Y3144D01*
Y3124D01*
X1333Y3105D01*
X1340Y3098D01*
Y2839D01*
X1343Y2822D01*
X1353Y2807D01*
X1604Y2556D01*
Y1254D01*
X1600Y1244D01*
Y1224D01*
X1608Y1205D01*
X1612Y1201D01*
X1618Y1193D01*
X1632Y1183D01*
X1650Y1179D01*
X1668Y1183D01*
X1682Y1193D01*
X1688Y1201D01*
X1692Y1205D01*
X1700Y1224D01*
Y1244D01*
X1696Y1254D01*
Y2575D01*
X1692Y2593D01*
X1682Y2607D01*
X1432Y2858D01*
Y3127D01*
X1434Y3129D01*
X1614D01*
X1620Y3116D01*
X1571Y3068D01*
X1564Y3058D01*
X1564Y3056D01*
X1553D01*
X1526Y3048D01*
X1502Y3034D01*
X1483Y3015D01*
X1469Y2991D01*
X1461Y2964D01*
Y2936D01*
X1469Y2909D01*
X1483Y2885D01*
X1502Y2866D01*
X1526Y2852D01*
X1553Y2844D01*
X1581D01*
X1608Y2852D01*
X1632Y2866D01*
X1651Y2885D01*
X1665Y2909D01*
X1673Y2936D01*
Y2964D01*
X1665Y2991D01*
X1651Y3015D01*
X1641Y3026D01*
X1640Y3044D01*
X1664Y3067D01*
X1800D01*
X1802Y3054D01*
X1780Y3048D01*
X1756Y3034D01*
X1737Y3015D01*
X1723Y2991D01*
X1716Y2964D01*
Y2936D01*
X1723Y2909D01*
X1737Y2885D01*
X1756Y2866D01*
X1780Y2852D01*
X1788Y2850D01*
Y1673D01*
X1790Y1660D01*
X1798Y1650D01*
X1847Y1600D01*
Y1587D01*
X1855Y1569D01*
X1869Y1555D01*
X1887Y1547D01*
X1907D01*
X1925Y1555D01*
X1939Y1569D01*
X1947Y1587D01*
Y1607D01*
X1939Y1625D01*
X1925Y1639D01*
X1907Y1647D01*
X1894D01*
X1854Y1687D01*
Y2850D01*
X1862Y2852D01*
X1886Y2866D01*
X1905Y2885D01*
X1919Y2909D01*
X1926Y2936D01*
Y2964D01*
X1919Y2991D01*
X1905Y3015D01*
X1886Y3034D01*
X1862Y3048D01*
X1840Y3054D01*
X1842Y3067D01*
X2054D01*
X2056Y3054D01*
X2034Y3048D01*
X2010Y3034D01*
X1991Y3015D01*
X1977Y2991D01*
X1969Y2964D01*
Y2936D01*
X1977Y2909D01*
X1991Y2885D01*
X1996Y2880D01*
X1941Y2825D01*
X1933Y2814D01*
X1931Y2801D01*
Y1763D01*
X1917Y1749D01*
X1910Y1731D01*
Y1711D01*
X1917Y1693D01*
X1931Y1679D01*
X1950Y1671D01*
X1970D01*
X1988Y1679D01*
X2002Y1693D01*
X2010Y1711D01*
Y1731D01*
X2002Y1749D01*
X1997Y1754D01*
Y2788D01*
X2056Y2846D01*
X2061Y2844D01*
X2089D01*
X2116Y2852D01*
X2140Y2866D01*
X2154Y2880D01*
X2167Y2875D01*
Y2800D01*
X2169Y2787D01*
X2177Y2777D01*
X2725Y2228D01*
Y2215D01*
X2733Y2197D01*
X2747Y2183D01*
X2765Y2175D01*
X2785D01*
X2803Y2183D01*
X2817Y2197D01*
X2825Y2215D01*
Y2235D01*
X2817Y2253D01*
X2803Y2267D01*
X2785Y2275D01*
X2772D01*
X2233Y2814D01*
Y2871D01*
X2246Y2876D01*
X2261Y2861D01*
X2286Y2847D01*
X2314Y2839D01*
X2316D01*
Y2950D01*
Y3061D01*
X2314D01*
X2286Y3053D01*
X2261Y3039D01*
X2246Y3024D01*
X2233Y3029D01*
Y3035D01*
X2231Y3048D01*
X2223Y3059D01*
X2166Y3116D01*
X2171Y3129D01*
X3043D01*
X3045Y3127D01*
Y3056D01*
X2985D01*
Y2844D01*
X3197D01*
Y3056D01*
X3137D01*
Y3129D01*
X4031D01*
X4204Y2956D01*
Y2847D01*
X4192Y2842D01*
X4192Y2842D01*
X4174Y2850D01*
X4154D01*
X4135Y2842D01*
X4127Y2833D01*
X4126Y2834D01*
X4112Y2848D01*
X4093Y2855D01*
X4073D01*
X4055Y2848D01*
X4041Y2834D01*
X4039Y2833D01*
X4029Y2843D01*
X4011Y2850D01*
X3991D01*
X3972Y2843D01*
X3958Y2829D01*
X3951Y2810D01*
Y2790D01*
X3958Y2772D01*
X3967Y2763D01*
Y2653D01*
X3621Y2307D01*
X3608D01*
X3590Y2299D01*
X3576Y2285D01*
X3568Y2267D01*
Y2247D01*
X3576Y2229D01*
X3588Y2216D01*
X3590Y2213D01*
X3590Y2201D01*
X3571Y2182D01*
X3558D01*
X3540Y2174D01*
X3526Y2160D01*
X3518Y2142D01*
Y2122D01*
X3526Y2103D01*
X3540Y2089D01*
X3547Y2087D01*
X3550Y2072D01*
X3527Y2048D01*
X3519Y2038D01*
X3517Y2025D01*
Y2013D01*
X3508Y2003D01*
X3500Y1985D01*
Y1965D01*
X3508Y1947D01*
X3517Y1937D01*
Y1893D01*
X3516Y1891D01*
Y1575D01*
X3519Y1563D01*
X3526Y1552D01*
X3585Y1493D01*
X3595Y1486D01*
X3608Y1484D01*
X3867D01*
X3880Y1486D01*
X3890Y1493D01*
X4218Y1822D01*
X4226Y1832D01*
X4228Y1845D01*
Y1883D01*
X4240Y1889D01*
X4247Y1883D01*
X4265Y1875D01*
X4285D01*
X4303Y1883D01*
X4317Y1897D01*
X4322Y1907D01*
X4407Y1993D01*
X4417Y2007D01*
X4421Y2025D01*
Y2600D01*
X4417Y2618D01*
X4407Y2632D01*
X4297Y2743D01*
X4296Y2745D01*
Y2975D01*
X4292Y2993D01*
X4282Y3007D01*
X4082Y3207D01*
X4068Y3217D01*
X4050Y3221D01*
D02*
G37*
G36*
X2440Y2937D02*
X2342D01*
Y2839D01*
X2344D01*
X2372Y2847D01*
X2397Y2861D01*
X2418Y2882D01*
X2432Y2907D01*
X2440Y2935D01*
Y2937D01*
D02*
G37*
G36*
X1450Y2633D02*
X1075D01*
X1062Y2631D01*
X1052Y2623D01*
X978Y2550D01*
X965D01*
X947Y2542D01*
X933Y2528D01*
X925Y2510D01*
Y2490D01*
X928Y2483D01*
X919Y2470D01*
X851D01*
X825Y2497D01*
Y2510D01*
X817Y2528D01*
X803Y2542D01*
X785Y2550D01*
X765D01*
X747Y2542D01*
X733Y2528D01*
X725Y2510D01*
Y2490D01*
X733Y2472D01*
X747Y2458D01*
X765Y2450D01*
X778D01*
X814Y2414D01*
X825Y2407D01*
X838Y2404D01*
X1337D01*
X1350Y2407D01*
X1361Y2414D01*
X1422Y2475D01*
X1435D01*
X1453Y2483D01*
X1467Y2497D01*
X1468Y2498D01*
X1482D01*
X1483Y2497D01*
X1497Y2483D01*
X1515Y2475D01*
X1535D01*
X1553Y2483D01*
X1567Y2497D01*
X1575Y2515D01*
Y2535D01*
X1567Y2553D01*
X1553Y2567D01*
X1535Y2575D01*
X1522D01*
X1473Y2623D01*
X1463Y2631D01*
X1461Y2631D01*
X1450Y2633D01*
D02*
G37*
G36*
X2851Y3056D02*
X2823D01*
X2796Y3048D01*
X2772Y3034D01*
X2753Y3015D01*
X2739Y2991D01*
X2732Y2964D01*
Y2936D01*
X2739Y2909D01*
X2753Y2885D01*
X2772Y2866D01*
X2796Y2852D01*
X2804Y2850D01*
Y2504D01*
X2806Y2491D01*
X2814Y2481D01*
X2917Y2377D01*
Y2322D01*
X2905Y2317D01*
X2616Y2606D01*
Y2850D01*
X2624Y2852D01*
X2648Y2866D01*
X2667Y2885D01*
X2681Y2909D01*
X2689Y2936D01*
Y2964D01*
X2681Y2991D01*
X2667Y3015D01*
X2648Y3034D01*
X2624Y3048D01*
X2597Y3056D01*
X2569D01*
X2542Y3048D01*
X2518Y3034D01*
X2499Y3015D01*
X2485Y2991D01*
X2477Y2964D01*
Y2936D01*
X2485Y2909D01*
X2499Y2885D01*
X2518Y2866D01*
X2542Y2852D01*
X2550Y2850D01*
Y2592D01*
X2552Y2579D01*
X2560Y2569D01*
X2867Y2261D01*
Y1900D01*
X2869Y1887D01*
X2877Y1877D01*
X2975Y1778D01*
Y1765D01*
X2983Y1747D01*
X2997Y1733D01*
X3015Y1725D01*
X3035D01*
X3053Y1733D01*
X3067Y1747D01*
X3075Y1765D01*
Y1785D01*
X3067Y1803D01*
X3053Y1817D01*
X3052Y1818D01*
Y1832D01*
X3053Y1833D01*
X3067Y1847D01*
X3075Y1865D01*
Y1885D01*
X3067Y1903D01*
X3053Y1917D01*
X3035Y1925D01*
X3022D01*
X2983Y1964D01*
Y2391D01*
X2981Y2404D01*
X2973Y2414D01*
X2870Y2518D01*
Y2850D01*
X2878Y2852D01*
X2902Y2866D01*
X2921Y2885D01*
X2935Y2909D01*
X2942Y2936D01*
Y2964D01*
X2935Y2991D01*
X2921Y3015D01*
X2902Y3034D01*
X2878Y3048D01*
X2851Y3056D01*
D02*
G37*
G36*
X486Y2334D02*
X464D01*
X442Y2326D01*
X426Y2310D01*
X418Y2288D01*
Y2266D01*
X426Y2244D01*
X442Y2228D01*
X464Y2219D01*
X486D01*
X508Y2228D01*
X524Y2244D01*
X532Y2266D01*
Y2288D01*
X524Y2310D01*
X508Y2326D01*
X486Y2334D01*
D02*
G37*
G36*
X460Y2075D02*
X440D01*
X422Y2067D01*
X408Y2053D01*
X400Y2035D01*
Y2015D01*
X408Y1997D01*
X419Y1985D01*
Y1924D01*
X408Y1912D01*
X400Y1894D01*
Y1874D01*
X408Y1855D01*
X422Y1841D01*
X440Y1834D01*
X460D01*
X478Y1841D01*
X492Y1855D01*
X500Y1874D01*
Y1894D01*
X492Y1912D01*
X481Y1924D01*
Y1985D01*
X492Y1997D01*
X500Y2015D01*
Y2035D01*
X492Y2053D01*
X478Y2067D01*
X460Y2075D01*
D02*
G37*
G36*
X486Y1758D02*
X464D01*
X442Y1749D01*
X426Y1733D01*
X418Y1711D01*
Y1689D01*
X426Y1667D01*
X442Y1651D01*
X464Y1642D01*
X486D01*
X508Y1651D01*
X524Y1667D01*
X532Y1689D01*
Y1711D01*
X524Y1733D01*
X508Y1749D01*
X486Y1758D01*
D02*
G37*
G36*
X760Y2259D02*
X740D01*
X722Y2251D01*
X708Y2237D01*
X700Y2219D01*
Y2199D01*
X704Y2189D01*
Y1779D01*
X700Y1769D01*
Y1749D01*
X707Y1730D01*
X722Y1716D01*
X727Y1714D01*
X732Y1709D01*
X733Y1707D01*
X743Y1693D01*
X843Y1593D01*
X857Y1583D01*
X875Y1579D01*
X981D01*
X1054Y1506D01*
Y1370D01*
X1050Y1360D01*
Y1340D01*
X1058Y1322D01*
X1072Y1308D01*
X1090Y1300D01*
X1110D01*
X1128Y1308D01*
X1142Y1322D01*
X1150Y1340D01*
Y1360D01*
X1146Y1370D01*
Y1525D01*
X1142Y1543D01*
X1132Y1557D01*
X1046Y1644D01*
Y1755D01*
X1050Y1765D01*
Y1785D01*
X1042Y1803D01*
X1041Y1805D01*
X1045Y1817D01*
X1161D01*
X1350Y1628D01*
Y1615D01*
X1358Y1597D01*
X1372Y1583D01*
X1390Y1575D01*
X1410D01*
X1428Y1583D01*
X1442Y1597D01*
X1450Y1615D01*
Y1635D01*
X1442Y1653D01*
X1428Y1667D01*
X1410Y1675D01*
X1397D01*
X1198Y1873D01*
X1188Y1881D01*
X1175Y1883D01*
X941D01*
X929Y1881D01*
X918Y1873D01*
X853Y1809D01*
X840D01*
X822Y1801D01*
X809Y1788D01*
X804Y1789D01*
X796Y1792D01*
Y2189D01*
X800Y2199D01*
Y2219D01*
X792Y2237D01*
X778Y2251D01*
X760Y2259D01*
D02*
G37*
G36*
X3235Y2150D02*
X3215D01*
X3197Y2142D01*
X3183Y2128D01*
X3175Y2110D01*
Y2090D01*
X3183Y2072D01*
X3192Y2062D01*
Y1639D01*
X2586Y1033D01*
X2582D01*
X2569Y1031D01*
X2561Y1025D01*
X2560Y1025D01*
X2540D01*
X2522Y1017D01*
X2508Y1003D01*
X2500Y985D01*
Y965D01*
X2508Y947D01*
X2522Y933D01*
X2540Y925D01*
X2560D01*
X2578Y933D01*
X2592Y947D01*
X2600Y965D01*
Y967D01*
X2613Y969D01*
X2623Y977D01*
X3248Y1602D01*
X3256Y1612D01*
X3258Y1625D01*
Y2062D01*
X3267Y2072D01*
X3275Y2090D01*
Y2110D01*
X3267Y2128D01*
X3253Y2142D01*
X3235Y2150D01*
D02*
G37*
G36*
X2278Y1124D02*
X2080D01*
Y926D01*
X2278D01*
Y1124D01*
D02*
G37*
G36*
X1938D02*
X1912D01*
X1887Y1118D01*
X1864Y1105D01*
X1845Y1086D01*
X1832Y1063D01*
X1825Y1038D01*
Y1012D01*
X1832Y987D01*
X1845Y964D01*
X1864Y945D01*
X1887Y932D01*
X1912Y926D01*
X1938D01*
X1963Y932D01*
X1986Y945D01*
X2005Y964D01*
X2018Y987D01*
X2025Y1012D01*
Y1038D01*
X2018Y1063D01*
X2005Y1086D01*
X1986Y1105D01*
X1963Y1118D01*
X1938Y1124D01*
D02*
G37*
G36*
X420Y600D02*
X413D01*
Y413D01*
X600D01*
Y420D01*
X593Y458D01*
X578Y495D01*
X556Y528D01*
X528Y556D01*
X495Y578D01*
X458Y593D01*
X420Y600D01*
D02*
G37*
G36*
X387D02*
X380D01*
X342Y593D01*
X305Y578D01*
X272Y556D01*
X244Y528D01*
X222Y495D01*
X207Y458D01*
X200Y420D01*
Y413D01*
X387D01*
Y600D01*
D02*
G37*
G36*
X600Y387D02*
X413D01*
Y200D01*
X420D01*
X458Y207D01*
X495Y222D01*
X528Y244D01*
X556Y272D01*
X578Y305D01*
X593Y342D01*
X600Y380D01*
Y387D01*
D02*
G37*
G36*
X387D02*
X200D01*
Y380D01*
X207Y342D01*
X222Y305D01*
X244Y272D01*
X272Y244D01*
X305Y222D01*
X342Y207D01*
X380Y200D01*
X387D01*
Y387D01*
D02*
G37*
%LPD*%
G36*
X4222Y2683D02*
X4232Y2678D01*
X4329Y2581D01*
Y2044D01*
X4257Y1972D01*
X4247Y1967D01*
X4235Y1956D01*
X4223Y1967D01*
X4205Y1975D01*
X4185D01*
X4167Y1967D01*
X4153Y1953D01*
X4145Y1935D01*
Y1919D01*
X4142Y1916D01*
X4136Y1912D01*
X4133Y1911D01*
X4118Y1917D01*
X4098D01*
X4080Y1910D01*
X4066Y1896D01*
X4060Y1895D01*
X4058Y1897D01*
X4039Y1904D01*
X4019D01*
X4001Y1897D01*
X3987Y1883D01*
X3979Y1864D01*
Y1844D01*
X3979Y1844D01*
X3962Y1826D01*
X3955Y1816D01*
X3952Y1803D01*
Y1799D01*
X3811Y1658D01*
X3738D01*
X3728Y1667D01*
X3710Y1675D01*
X3690D01*
X3672Y1667D01*
X3659Y1654D01*
X3654Y1655D01*
X3646Y1658D01*
Y1813D01*
X3655Y1822D01*
X3662Y1840D01*
Y1860D01*
X3655Y1878D01*
X3641Y1892D01*
X3622Y1900D01*
X3602D01*
X3596Y1897D01*
X3583Y1906D01*
Y1937D01*
X3592Y1947D01*
X3600Y1965D01*
Y1985D01*
X3592Y2003D01*
X3584Y2012D01*
X4187Y2615D01*
X4194Y2626D01*
X4197Y2639D01*
Y2691D01*
X4200Y2693D01*
X4210Y2695D01*
X4222Y2683D01*
D02*
G37*
D10*
X450Y1884D02*
Y2025D01*
X450Y1884D02*
X450Y1884D01*
D13*
X4050Y3175D02*
X4250Y2975D01*
X3062Y3175D02*
X4050D01*
X4275Y1925D02*
X4375Y2025D01*
Y2600D01*
X4250Y2725D02*
X4375Y2600D01*
X4250Y2725D02*
Y2975D01*
X3091Y2950D02*
Y3146D01*
X1415Y3175D02*
X3062D01*
X3091Y3146D01*
X1386D02*
X1415Y3175D01*
X1386Y2839D02*
Y3146D01*
X1650Y1225D02*
Y2575D01*
X1386Y2839D02*
X1650Y2575D01*
X750Y1756D02*
X775Y1731D01*
Y1725D02*
X875Y1625D01*
X750Y1759D02*
X750Y1759D01*
Y2209D01*
X750Y1756D02*
Y1759D01*
X775Y1725D02*
Y1731D01*
X875Y1625D02*
X1000D01*
Y1775D01*
Y1625D02*
X1100Y1525D01*
Y1350D02*
Y1525D01*
D19*
X4719Y1054D02*
D03*
Y546D02*
D03*
D67*
X3825Y1625D02*
X3985Y1785D01*
X3837Y1562D02*
X4101Y1826D01*
X3985Y1785D02*
Y1803D01*
X4029Y1847D02*
Y1854D01*
X3985Y1803D02*
X4029Y1847D01*
X4101Y1826D02*
Y1861D01*
X4108Y1867D01*
X3608Y1517D02*
X3867D01*
X4195Y1845D02*
Y1925D01*
X3867Y1517D02*
X4195Y1845D01*
X3640Y1562D02*
X3837D01*
X3700Y1625D02*
X3825D01*
X3568Y2132D02*
X3618Y2182D01*
X3632D02*
X3835Y2385D01*
X3550Y2025D02*
X4164Y2639D01*
X3618Y2182D02*
X3632D01*
X3550Y1892D02*
Y2025D01*
X4164Y2639D02*
Y2800D01*
X4083Y2647D02*
Y2805D01*
X3618Y2257D02*
X4001Y2639D01*
X3835Y2398D02*
X4083Y2647D01*
X3835Y2385D02*
Y2398D01*
X4001Y2639D02*
Y2800D01*
X1650Y3100D02*
X2135D01*
X2200Y3035D01*
X1595Y3045D02*
X1650Y3100D01*
X1425Y2525D02*
Y2525D01*
X1337Y2437D02*
X1425Y2525D01*
X1450Y2600D02*
X1525Y2525D01*
X838Y2437D02*
X1337D01*
X941Y1850D02*
X1175D01*
X850Y1759D02*
X941Y1850D01*
X1175D02*
X1400Y1625D01*
X1075Y2600D02*
X1450D01*
X975Y2500D02*
X1075Y2600D01*
X775Y2500D02*
X838Y2437D01*
X1821Y1673D02*
Y2948D01*
Y1673D02*
X1897Y1597D01*
X1964Y1725D02*
Y2801D01*
X2075Y2912D01*
X1960Y1721D02*
X1964Y1725D01*
X2075Y2912D02*
Y2950D01*
X2550Y975D02*
X2557D01*
X2600Y1000D02*
X3225Y1625D01*
X2582Y1000D02*
X2600D01*
X2557Y975D02*
X2582Y1000D01*
X3225Y1625D02*
Y2100D01*
X2900Y1900D02*
X3025Y1775D01*
X2900Y1900D02*
Y2275D01*
X2950Y1950D02*
Y2391D01*
Y1950D02*
X3025Y1875D01*
X2837Y2504D02*
X2950Y2391D01*
X2837Y2504D02*
Y2950D01*
X2583Y2592D02*
Y2950D01*
Y2592D02*
X2900Y2275D01*
X2200Y2800D02*
X2775Y2225D01*
X2200Y2800D02*
Y3035D01*
X1595Y2978D02*
Y3045D01*
X1567Y2950D02*
X1595Y2978D01*
X3550Y1575D02*
X3608Y1517D01*
X3550Y1891D02*
X3550Y1892D01*
X3613Y1590D02*
Y1850D01*
X3612Y1850D02*
X3613Y1850D01*
X3550Y1575D02*
Y1891D01*
X3613Y1590D02*
X3640Y1562D01*
D70*
X400Y3100D02*
D03*
Y400D02*
D03*
D71*
X3091Y2950D02*
D03*
D72*
X2837D02*
D03*
X2583D02*
D03*
X2329D02*
D03*
X2075D02*
D03*
X1821D02*
D03*
X1567D02*
D03*
D73*
X1925Y1025D02*
D03*
D74*
X2179D02*
D03*
D75*
X475Y2277D02*
D03*
Y1700D02*
D03*
D76*
X4600Y3200D02*
D03*
X4725Y2950D02*
D03*
X4600Y2700D02*
D03*
X4725Y2450D02*
D03*
X4600Y2200D02*
D03*
X4725Y1950D02*
D03*
X4600Y1700D02*
D03*
X4725Y1450D02*
D03*
X4600Y1200D02*
D03*
Y200D02*
D03*
X4350Y3200D02*
D03*
X4475Y2950D02*
D03*
Y2450D02*
D03*
Y1450D02*
D03*
X4350Y200D02*
D03*
X4225Y450D02*
D03*
X4100Y200D02*
D03*
X3975Y2950D02*
D03*
X3850Y200D02*
D03*
X3600Y2700D02*
D03*
X3725Y1450D02*
D03*
X3600Y1200D02*
D03*
X3725Y950D02*
D03*
X3600Y700D02*
D03*
Y200D02*
D03*
X3350Y1200D02*
D03*
X3475Y950D02*
D03*
X3350Y700D02*
D03*
X3475Y450D02*
D03*
X3350Y200D02*
D03*
X3100Y2700D02*
D03*
X3225Y2450D02*
D03*
Y1450D02*
D03*
X3100Y1200D02*
D03*
X3225Y950D02*
D03*
X3100Y700D02*
D03*
X3225Y450D02*
D03*
X3100Y200D02*
D03*
X2850Y1700D02*
D03*
X2975Y950D02*
D03*
X2850Y700D02*
D03*
X2975Y450D02*
D03*
X2850Y200D02*
D03*
X2600Y2200D02*
D03*
X2725Y1950D02*
D03*
X2600Y1700D02*
D03*
X2725Y1450D02*
D03*
X2600Y1200D02*
D03*
X2725Y950D02*
D03*
X2600Y700D02*
D03*
X2725Y450D02*
D03*
X2600Y200D02*
D03*
X2350Y2200D02*
D03*
X2475Y1950D02*
D03*
X2350Y1700D02*
D03*
Y700D02*
D03*
X2475Y450D02*
D03*
X2350Y200D02*
D03*
X2225Y2450D02*
D03*
X2100Y2200D02*
D03*
X2225Y1950D02*
D03*
Y1450D02*
D03*
X2100Y1200D02*
D03*
Y700D02*
D03*
X2225Y450D02*
D03*
X2100Y200D02*
D03*
X1975Y1450D02*
D03*
X1850Y1200D02*
D03*
Y700D02*
D03*
X1975Y450D02*
D03*
X1850Y200D02*
D03*
X1600Y700D02*
D03*
X1725Y450D02*
D03*
X1600Y200D02*
D03*
X1475Y950D02*
D03*
X1350Y700D02*
D03*
X1475Y450D02*
D03*
X1350Y200D02*
D03*
X1100Y3200D02*
D03*
Y2700D02*
D03*
Y700D02*
D03*
X1225Y450D02*
D03*
X1100Y200D02*
D03*
X850Y3200D02*
D03*
Y2200D02*
D03*
Y1200D02*
D03*
Y700D02*
D03*
X975Y450D02*
D03*
X850Y200D02*
D03*
X600Y2700D02*
D03*
X725Y1450D02*
D03*
X600Y1200D02*
D03*
X725Y950D02*
D03*
X600Y700D02*
D03*
X725Y450D02*
D03*
X600Y200D02*
D03*
X350Y2700D02*
D03*
Y2200D02*
D03*
Y1700D02*
D03*
Y1200D02*
D03*
X475Y950D02*
D03*
X350Y700D02*
D03*
X100Y3200D02*
D03*
Y2700D02*
D03*
Y2200D02*
D03*
X225Y1950D02*
D03*
X100Y1700D02*
D03*
Y1200D02*
D03*
X225Y950D02*
D03*
X100Y700D02*
D03*
Y200D02*
D03*
X4108Y1867D02*
D03*
X4029Y1854D02*
D03*
X1250Y2025D02*
D03*
X1143D02*
D03*
X1357D02*
D03*
X1250Y2133D02*
D03*
Y1920D02*
D03*
X4348Y1043D02*
D03*
X3703Y741D02*
D03*
X3758Y520D02*
D03*
X4019Y501D02*
D03*
X4105Y519D02*
D03*
X4231Y557D02*
D03*
X4402Y567D02*
D03*
X4488Y919D02*
D03*
X4403Y932D02*
D03*
X4293D02*
D03*
X4183D02*
D03*
X3793Y708D02*
D03*
X3812Y599D02*
D03*
X4024Y584D02*
D03*
X4095Y668D02*
D03*
X4315D02*
D03*
X4425D02*
D03*
X4050Y2375D02*
D03*
X4125Y2450D02*
D03*
X4050Y1550D02*
D03*
X4138Y1462D02*
D03*
X3962D02*
D03*
X4138Y1638D02*
D03*
X4125Y2300D02*
D03*
X3975D02*
D03*
X3568Y2132D02*
D03*
X3618Y2257D02*
D03*
X4250Y2725D02*
D03*
X1375Y3134D02*
D03*
X1650Y1234D02*
D03*
X1425Y2525D02*
D03*
X750Y1759D02*
D03*
X750Y2209D02*
D03*
X450Y1884D02*
D03*
X450Y2025D02*
D03*
X1000Y1775D02*
D03*
X1100Y1350D02*
D03*
X975Y2500D02*
D03*
X1525Y2525D02*
D03*
X775Y2500D02*
D03*
X1960Y1721D02*
D03*
X2550Y975D02*
D03*
X3225Y2100D02*
D03*
X3025Y1775D02*
D03*
Y1875D02*
D03*
X1400Y1625D02*
D03*
X850Y1759D02*
D03*
X2775Y2225D02*
D03*
X1897Y1597D02*
D03*
X3612Y1850D02*
D03*
X3550Y1975D02*
D03*
X3700Y1625D02*
D03*
X4001Y2800D02*
D03*
X4083Y2805D02*
D03*
X4195Y1925D02*
D03*
X4275D02*
D03*
X4164Y2800D02*
D03*
M02*
